<svg viewBox="0 0 500 129" fill="#F9CC0B" xmlns="http://www.w3.org/2000/svg" className={cn(className)} {...props} >
  <path d="M24.3334 87.9074H31.8885L28.2691 80L24.3334 87.9074Z" />
  <path d="M108.261 30.3725L81.8922 4.00376C79.578 1.68158 75.5102 0 72.2271 0H28.1857C21.5635 0 16.1744 5.38906 16.1744 12.0113V52.0489C16.1744 53.1108 16.5963 54.1291 17.3471 54.88C18.098 55.6308 19.1163 56.0527 20.1782 56.0527C21.2401 56.0527 22.2584 55.6308 23.0093 54.88C23.7601 54.1291 24.182 53.1108 24.182 52.0489V12.0113C24.182 9.80521 25.9756 8.00752 28.1857 8.00752H64.2196C66.3433 8.00752 68.38 8.85117 69.8817 10.3529C71.3834 11.8546 72.2271 13.8913 72.2271 16.015V31.0291C72.2345 33.4161 73.186 35.7031 74.8738 37.3909C76.5616 39.0787 78.8486 40.0302 81.2356 40.0376H96.2497C98.3734 40.0376 100.41 40.8813 101.912 42.383C103.414 43.8847 104.257 45.9214 104.257 48.0451V116.109C104.257 117.171 103.835 118.189 103.085 118.94C102.334 119.691 101.315 120.113 100.253 120.113H28.1857C25.9756 120.113 24.182 118.315 24.182 116.109C24.182 115.047 23.7601 114.029 23.0093 113.278C22.2584 112.527 21.2401 112.105 20.1782 112.105C19.1163 112.105 18.098 112.527 17.3471 113.278C16.5963 114.029 16.1744 115.047 16.1744 116.109C16.1744 122.731 21.5635 128.12 28.1857 128.12H100.253C106.876 128.12 112.265 122.731 112.265 116.109V40.0376C112.265 36.7585 110.583 32.6907 108.261 30.3725Z" />
  <path fillRule="evenodd" clipRule="evenodd" d="M4.16319 60.0564H92.2459C94.452 60.0564 96.2497 61.8581 96.2497 64.0602V104.098C96.2497 106.3 94.452 108.102 92.2459 108.102H4.16319C1.96112 108.102 0.159424 106.3 0.159424 104.098V64.0602C0.159424 61.8581 1.96112 60.0564 4.16319 60.0564ZM34.6549 93.5959L35.3616 95.0052C36.5106 97.4996 40.3823 95.5097 39.0691 93.0154L30.0446 75.0585C29.2438 73.2968 26.9377 73.3609 26.0728 75.0585L16.8882 93.0154C16.2476 94.3606 16.8882 95.5097 17.9132 96.0902C19.0623 96.3185 20.2474 96.0902 20.7598 95.0052L21.4485 93.5959L22.1371 92.1866H33.9482L34.6549 93.5959ZM42.8966 94.1364C42.8966 96.859 47.1206 96.7949 47.1206 94.1364V75.8632C47.1206 73.1407 42.8966 73.2368 42.8966 75.8632V94.1364ZM80.0039 81.4821C80.0594 83.58 79.3544 85.6599 77.8409 87.2565C76.2937 88.8897 74.254 89.7397 72.1921 89.7943C70.3136 89.8437 68.4527 89.2417 66.9009 88.0165L65.5121 91.6732L61.8513 95.5317C61.4614 95.8316 61.0313 95.9868 60.5614 95.9993C59.3686 96.0307 58.3647 95.0074 58.3342 93.8515C58.3217 93.3812 58.4529 92.9072 58.7329 92.5394L62.3577 88.679L65.9681 87.1008C64.6928 85.6526 63.9658 83.8029 63.9136 81.8739C63.7977 77.4974 67.3897 73.7848 71.7638 73.6693C76.1033 73.5543 79.8893 77.1444 80.0039 81.4821ZM67.0252 81.8258C67.0598 83.1272 67.5634 84.3816 68.5654 85.3305C69.5661 86.2457 70.8449 86.7192 72.1089 86.6855C74.7862 86.6148 76.9682 84.3132 76.8956 81.5643C76.8245 78.8903 74.4882 76.7083 71.847 76.7781C69.1369 76.8492 66.9554 79.1869 67.0252 81.8258Z" />
  <path d="M150.267 98.2992C148.352 98.2992 146.585 97.6071 144.965 96.2228C143.345 94.8091 142.535 93.145 142.535 91.2305V19.2181C142.535 15.831 143.684 13.0624 145.981 10.9123C148.249 8.7917 150.929 7.7314 154.022 7.7314H188.482C190.985 7.7314 192.797 8.39409 193.916 9.71948C195.006 11.0449 195.551 12.6648 195.551 14.5792C195.551 16.4936 194.888 18.1136 193.563 19.4389C192.237 20.7643 190.544 21.427 188.482 21.427H163.741C159.913 21.427 157.998 23.3415 157.998 27.1703V39.7615C157.998 43.5904 159.765 45.5048 163.3 45.5048H186.494C188.997 45.5048 190.809 46.197 191.928 47.5812C193.018 48.995 193.563 50.5854 193.563 52.3526C193.563 54.1198 192.9 55.6955 191.574 57.0798C190.249 58.4936 188.556 59.2004 186.494 59.2004H163.3C159.765 59.2004 157.998 61.0412 157.998 64.7229V91.2305C157.998 93.145 157.232 94.8091 155.701 96.2228C154.14 97.6071 152.328 98.2992 150.267 98.2992ZM217.64 98.2992C215.726 98.2992 213.988 97.7102 212.427 96.5321C210.896 95.3539 210.13 93.6604 210.13 91.4514V38.4361C210.13 35.9326 210.896 34.0476 212.427 32.7811C213.988 31.5441 215.726 30.9256 217.64 30.9256C219.555 30.9256 221.278 31.5441 222.809 32.7811C224.37 34.0476 225.151 35.9326 225.151 38.4361V91.4514C225.151 93.6604 224.37 95.3539 222.809 96.5321C221.278 97.7102 219.555 98.2992 217.64 98.2992ZM217.861 18.7763C215.063 18.7763 212.663 17.8485 210.66 15.993C208.687 14.1669 207.7 11.9284 207.7 9.27768C207.7 6.77418 208.687 4.59466 210.66 2.73913C212.663 0.913045 215.063 0 217.861 0C220.512 0 222.795 0.913045 224.709 2.73913C226.623 4.59466 227.581 6.77418 227.581 9.27768C227.581 11.9284 226.623 14.1669 224.709 15.993C222.795 17.8485 220.512 18.7763 217.861 18.7763ZM298.489 98.2992C296.574 98.2992 294.837 97.7102 293.275 96.5321C291.714 95.3539 290.934 93.6604 290.934 91.4514V63.6184C290.934 57.1387 289.506 52.3526 286.649 49.2601C283.792 46.1675 280.007 44.6212 275.294 44.6212C269.257 44.6212 264.868 46.5651 262.129 50.4529C259.419 54.3702 258.064 58.685 258.064 63.3975V91.4514C258.064 93.6604 257.284 95.3539 255.723 96.5321C254.191 97.7102 252.468 98.2992 250.554 98.2992C248.64 98.2992 246.902 97.7102 245.341 96.5321C243.809 95.3539 243.043 93.6604 243.043 91.4514V39.5406C243.043 37.0371 243.809 35.1521 245.341 33.8856C246.902 32.6486 248.64 32.0301 250.554 32.0301C252.468 32.0301 254.191 32.6486 255.723 33.8856C257.284 35.1521 258.064 37.0371 258.064 39.5406C260.568 37.0371 263.808 34.9754 267.784 33.3555C271.76 31.7356 275.515 30.9256 279.05 30.9256C287.297 30.9256 293.835 33.5764 298.665 38.8779C303.555 44.1794 305.999 51.9845 305.999 62.293V91.4514C305.999 93.6604 305.189 95.3539 303.569 96.5321C301.949 97.7102 300.256 98.2992 298.489 98.2992ZM315.895 38.4361C315.895 36.0799 316.705 34.2391 318.325 32.9137C319.945 31.5883 321.712 30.9256 323.627 30.9256C326.719 30.9256 328.928 32.4719 330.254 35.5644L347.484 77.7558C347.925 78.9339 348.735 79.523 349.914 79.523C351.092 79.523 351.902 79.0075 352.343 77.9767L367.143 35.7853C368.322 32.5455 370.604 30.9256 373.991 30.9256C376.053 30.9256 377.938 31.5883 379.646 32.9137C381.325 34.2391 382.165 35.859 382.165 37.7734C382.165 38.5097 381.944 39.5406 381.502 40.866L347.705 123.261C346.526 126.5 344.244 128.12 340.857 128.12C338.942 128.12 337.146 127.458 335.467 126.132C333.759 124.807 332.904 123.187 332.904 121.273C332.904 119.8 333.125 118.769 333.567 118.18L344.391 96.0903C341.299 95.7957 339.163 94.3231 337.985 91.6723L316.337 41.0869C316.043 39.9087 315.895 39.0252 315.895 38.4361ZM416.183 98.2992C411.912 98.2992 407.568 97.7543 403.15 96.6646C398.732 95.5454 394.829 93.8077 391.442 91.4514C389.675 89.8315 388.791 88.0643 388.791 86.1499C388.791 84.2354 389.572 82.5419 391.133 81.0693C392.664 79.5966 394.387 78.8603 396.302 78.8603C397.333 78.8603 398.364 79.1548 399.395 79.7439C402.045 81.3638 405.108 82.645 408.584 83.5875C412.03 84.5594 415.299 85.0454 418.392 85.0454C421.337 85.0454 423.885 84.53 426.035 83.4991C428.155 82.4683 429.216 80.7747 429.216 78.4185C429.216 76.0622 428.185 74.2951 426.123 73.117C424.061 71.9388 420.527 71.0552 415.52 70.4662C413.458 70.1717 410.999 69.8035 408.142 69.3617C405.256 68.9199 402.413 68.1099 399.615 66.9318C396.817 65.7537 394.461 63.9865 392.547 61.6303C390.632 59.2741 389.675 56.1079 389.675 52.1317C389.675 45.6521 392.075 40.4978 396.876 36.6689C401.648 32.84 408.083 30.9256 416.183 30.9256C420.895 30.9256 425.357 31.5147 429.569 32.6928C433.751 33.8709 436.873 35.3435 438.935 37.1107C440.555 38.4361 441.365 39.9824 441.365 41.7496C441.365 43.664 440.702 45.3575 439.377 46.8302C438.051 48.3028 436.432 49.0392 434.517 49.0392C433.486 49.0392 432.529 48.8183 431.646 48.3765C429.289 47.0511 426.683 46.0497 423.826 45.3723C420.939 44.7243 418.171 44.4003 415.52 44.4003C412.427 44.4003 409.821 44.8716 407.7 45.8141C405.55 46.786 404.475 48.3028 404.475 50.3645C404.475 51.8372 405.108 53.1331 406.375 54.2523C407.612 55.3421 410.881 56.2551 416.183 56.9915C418.686 57.286 421.528 57.7278 424.709 58.3168C427.861 58.9059 430.909 59.8189 433.854 61.056C436.8 62.3224 439.23 64.2811 441.144 66.9318C443.058 69.5826 444.016 73.1906 444.016 77.7558C444.016 82.4683 442.69 86.3266 440.04 89.3308C437.389 92.3644 433.972 94.6176 429.79 96.0903C425.578 97.5629 421.042 98.2992 416.183 98.2992ZM482.231 98.2992C476.488 98.2992 471.775 96.5321 468.094 92.9977C464.412 89.4633 462.571 84.1618 462.571 77.0931V49.0392C462.571 47.5665 461.835 46.8302 460.362 46.8302H456.386C454.472 46.8302 452.852 46.197 451.526 44.9305C450.201 43.6935 449.538 42.1177 449.538 40.2033C449.538 38.1416 450.201 36.448 451.526 35.1226C452.852 33.7973 454.472 33.1346 456.386 33.1346H460.362C461.835 33.1346 462.571 32.3982 462.571 30.9256V12.3702C462.571 10.3085 463.263 8.64444 464.648 7.37796C466.061 6.14094 467.799 5.52243 469.861 5.52243C472.07 5.52243 473.866 6.14094 475.251 7.37796C476.664 8.64444 477.371 10.3085 477.371 12.3702V30.9256C477.371 32.3982 478.108 33.1346 479.58 33.1346H491.509C493.276 33.1346 494.822 33.7973 496.147 35.1226C497.473 36.448 498.135 38.1416 498.135 40.2033C498.135 42.1177 497.502 43.6935 496.236 44.9305C494.999 46.197 493.349 46.8302 491.288 46.8302H479.58C478.108 46.8302 477.371 47.5665 477.371 49.0392V75.105C477.371 81.2901 479.875 84.3827 484.882 84.3827C486.354 84.3827 487.901 84.1618 489.521 83.72C491.14 83.2782 492.245 83.0573 492.834 83.0573C494.896 83.0573 496.471 83.72 497.561 85.0454C498.68 86.3708 499.24 87.9171 499.24 89.6842C499.24 91.0096 498.872 92.2908 498.135 93.5278C497.399 94.7943 496.221 95.7221 494.601 96.3111C492.981 96.9002 490.949 97.3862 488.504 97.7691C486.089 98.1225 483.998 98.2992 482.231 98.2992Z" />
</svg>